<?xml version="1.0" encoding="utf-8"?>
<!-- Generator: Adobe Illustrator 24.1.1, SVG Export Plug-In . SVG Version: 6.00 Build 0)  -->
<svg version="1.1" id="Слой_1" xmlns="http://www.w3.org/2000/svg" xmlns:xlink="http://www.w3.org/1999/xlink" x="0px" y="0px"
	 viewBox="0 0 64 64" style="enable-background:new 0 0 64 64;" xml:space="preserve">
<style type="text/css">
	.st0{fill:#FFFFFF;}
	.st1{font-family:'Gilroy-ExtraBold';}
	.st2{font-size:28.6981px;}
</style>
<path d="M21.6,7C13.5,7,7,13.5,7,21.6v20.8c0,8,6.5,14.6,14.6,14.6h20.8c8,0,14.6-6.5,14.6-14.6V21.6C57,13.5,50.5,7,42.4,7H21.6z
	 M47,15c1.1,0,2,0.9,2,2s-0.9,2-2,2s-2-0.9-2-2S45.9,15,47,15z M32,19c7.2,0,13,5.8,13,13s-5.8,13-13,13c-7.2,0-13-5.8-13-13
	S24.8,19,32,19z M32,23c-5,0-9,4-9,9s4,9,9,9s9-4,9-9S37,23,32,23z"/>
<circle cx="32" cy="31.3" r="22.9"/>
<text transform="matrix(0.9778 0 0 1 13.7417 40.3672)" class="st0 st1 st2">Mc</text>
</svg>
