<?xml version="1.0" encoding="utf-8"?>
<!-- Generator: Adobe Illustrator 24.1.1, SVG Export Plug-In . SVG Version: 6.00 Build 0)  -->
<svg version="1.1" id="Слой_1" xmlns="http://www.w3.org/2000/svg" xmlns:xlink="http://www.w3.org/1999/xlink" x="0px" y="0px"
	 viewBox="0 0 64 64" style="enable-background:new 0 0 64 64;" xml:space="preserve">
<style type="text/css">
	.st0{enable-background:new    ;}
	.st1{fill:#FFFFFF;}
</style>
<path d="M21.6,7C13.5,7,7,13.5,7,21.6v20.8c0,8,6.5,14.6,14.6,14.6h20.8c8,0,14.6-6.5,14.6-14.6V21.6C57,13.5,50.5,7,42.4,7H21.6z
	 M47,15c1.1,0,2,0.9,2,2s-0.9,2-2,2s-2-0.9-2-2S45.9,15,47,15z M32,19c7.2,0,13,5.8,13,13s-5.8,13-13,13s-13-5.8-13-13
	S24.8,19,32,19z M32,23c-5,0-9,4-9,9s4,9,9,9s9-4,9-9S37,23,32,23z"/>
<circle cx="32" cy="31.3" r="22.9"/>
<g class="st0">
	<g>
		<path class="st1" d="M33.2,43.9c-1.3,0-2.5,0-3.8-0.2c0-4.5,0-9.1,0-13.6c-1.4,3.4-2.9,6.6-4.3,9.3c-0.1,0-0.3-0.1-0.4-0.1
			c-1.4-3.3-2.8-6.3-4.2-8.8c0,3.5,0,7,0,10.5c-1.2-0.6-2.4-1.2-3.6-1.9c0-4.8,0-9.6,0-14.4c1.2-0.7,2.4-1.3,3.6-1.9
			c1.4,2,2.9,4.7,4.4,7.8c1.5-3.2,3-6.9,4.5-10.5c1.3-0.2,2.5-0.2,3.8-0.2C33.2,28,33.2,36,33.2,43.9z"/>
		<path class="st1" d="M43.2,41.5c-1.2-1.5-2.4-3.4-3.7-5.5c0,2.3,0,4.6,0,6.9c-1.2,0.3-2.3,0.6-3.5,0.8c0-7.8,0-15.6,0-23.4
			c1.2,0.2,2.4,0.4,3.5,0.8c0,4.3,0,8.7,0,13c1.2-2.3,2.3-4.5,3.5-6.3c1.3,0.2,2.6,0.5,3.9,0.8c-1.3,1.5-2.7,3.6-4.1,6.1
			c1.4,2.1,2.8,3.8,4.2,4.9C45.8,40.3,44.5,41,43.2,41.5z"/>
	</g>
</g>
</svg>
